<?xml version="1.0" encoding="UTF-8"?>
<svg width="24px" height="24px" viewBox="0 0 24 24" version="1.1" xmlns="http://www.w3.org/2000/svg" xmlns:xlink="http://www.w3.org/1999/xlink">
    <!-- Generator: Sketch 63.1 (92452) - https://sketch.com -->
    <title>切片</title>
    <desc>Created with Sketch.</desc>
    <g id="运维/产品管理" stroke="none" stroke-width="1" fill="none" fill-rule="evenodd">
        <g id="运维/产品管理(右）" transform="translate(-76.000000, -192.000000)" fill="currentColor" fill-rule="nonzero">
            <g id="侧边栏" transform="translate(32.000000, 108.000000)">
                <g id="侧边栏/子集未选中" transform="translate(0.000000, 64.000000)">
                    <g id="icon/系统设置" transform="translate(44.000000, 20.000000)">
                        <g id="编组" transform="translate(3.000000, 2.000000)">
                            <path d="M9.28571429,0 L1.42857143,0 C0.640714286,0 0,0.640714286 0,1.42857143 L0,18.5714286 C0,19.3592857 0.640714286,20 1.42857143,20 L9.28571429,20 C10.0735714,20 10.7142857,19.3592857 10.7142857,18.5714286 L10.7142857,1.42857143 C10.7142857,0.640714286 10.0735714,0 9.28571429,0 Z M1.42857143,18.5714286 L1.42857143,1.42857143 L9.28571429,1.42857143 L9.28642857,18.5714286 L1.42857143,18.5714286 Z M17.1428571,7.14285714 L12.8571429,7.14285714 C12.0692857,7.14285714 11.4285714,7.78357143 11.4285714,8.57142857 L11.4285714,18.5714286 C11.4285714,19.3592857 12.0692857,20 12.8571429,20 L17.1428571,20 C17.9307143,20 18.5714286,19.3592857 18.5714286,18.5714286 L18.5714286,8.57142857 C18.5714286,7.78357143 17.9307143,7.14285714 17.1428571,7.14285714 Z M12.8571429,18.5714286 L12.8571429,8.57142857 L17.1428571,8.57142857 L17.1442857,18.5714286 L12.8571429,18.5714286 Z" id="形状"></path>
                            <path d="M7.14285714,15.8571429 L3.57142857,15.8571429 C3.17693946,15.8571429 2.85714286,16.1769395 2.85714286,16.5714286 C2.85714286,16.9659177 3.17693946,17.2857143 3.57142857,17.2857143 L7.14285714,17.2857143 C7.53734625,17.2857143 7.85714286,16.9659177 7.85714286,16.5714286 C7.85714286,16.1769395 7.53734625,15.8571429 7.14285714,15.8571429 Z" id="路径"></path>
                        </g>
                    </g>
                </g>
            </g>
        </g>
    </g>
</svg>